HIERARCHY
ROOT Hips
{
	OFFSET 0.000000 103.266502 0.000000
	CHANNELS 6 Xposition Yposition Zposition Xrotation Yrotation Zrotation 
	JOINT Spine
	{
		OFFSET -0.002400 12.777504 0.315300
		CHANNELS 3 Xrotation Yrotation Zrotation
		JOINT Spine1
		{
			OFFSET -0.002067 5.816869 0.032633
			CHANNELS 3 Xrotation Yrotation Zrotation
			JOINT Spine1_split
			{
				OFFSET -0.002067 5.816869 0.032633
				CHANNELS 3 Xrotation Yrotation Zrotation
				JOINT Spine2
				{
					OFFSET -0.002067 5.816869 0.032633
					CHANNELS 3 Xrotation Yrotation Zrotation
					JOINT Neck
					{
						OFFSET -0.003700 21.199493 -0.826900
						CHANNELS 3 Xrotation Yrotation Zrotation
						JOINT Head
						{
							OFFSET 0.000000 20.442200 4.834800
							CHANNELS 3 Xrotation Yrotation Zrotation
							JOINT HeadTop_End
							{
								OFFSET 0.000000 34.668396 4.968400
								CHANNELS 3 Xrotation Yrotation Zrotation
								End Site
								{
									OFFSET 0.000000 0.000000 0.000000
								}
							}
						}
					}
					JOINT LeftShoulder
					{
						OFFSET 3.288150 8.794197 -1.372250
						CHANNELS 3 Xrotation Yrotation Zrotation
						JOINT LeftShoulder_split
						{
							OFFSET 3.288150 8.794197 -1.372250
							CHANNELS 3 Xrotation Yrotation Zrotation
							JOINT LeftArm
							{
								OFFSET 11.953299 -2.279007 -0.146200
								CHANNELS 3 Xrotation Yrotation Zrotation
								JOINT LeftForeArm
								{
									OFFSET 18.448900 0.000000 0.000000
									CHANNELS 3 Xrotation Yrotation Zrotation
									JOINT LeftHand
									{
										OFFSET 29.527798 0.000000 0.000000
										CHANNELS 3 Xrotation Yrotation Zrotation
										JOINT LeftHandThumb1
										{
											OFFSET 10.739754 -2.369614 9.225399
											CHANNELS 3 Xrotation Yrotation Zrotation
											JOINT LeftHandThumb2
											{
												OFFSET 4.926170 -2.844131 2.844125
												CHANNELS 3 Xrotation Yrotation Zrotation
												JOINT LeftHandThumb3
												{
													OFFSET 4.614891 -2.664413 2.664409
													CHANNELS 3 Xrotation Yrotation Zrotation
													JOINT LeftHandThumb4
													{
														OFFSET 4.432465 -2.559082 2.559083
														CHANNELS 3 Xrotation Yrotation Zrotation
														End Site
														{
															OFFSET 0.000000 0.000000 0.000000
														}
													}
												}
											}
										}
										JOINT LeftHandIndex1
										{
											OFFSET 26.467674 0.187653 6.405298
											CHANNELS 3 Xrotation Yrotation Zrotation
											JOINT LeftHandIndex2
											{
												OFFSET 8.792900 0.000000 0.000000
												CHANNELS 3 Xrotation Yrotation Zrotation
												JOINT LeftHandIndex3
												{
													OFFSET 10.075203 0.000000 0.000000
													CHANNELS 3 Xrotation Yrotation Zrotation
													End Site
													{
														OFFSET 0.000000 0.000000 0.000000
													}
												}
											}
										}
										JOINT LeftHandMiddle1
										{
											OFFSET 25.764404 0.000000 0.000000
											CHANNELS 3 Xrotation Yrotation Zrotation
											JOINT LeftHandMiddle2
											{
												OFFSET 9.393974 0.000000 0.000000
												CHANNELS 3 Xrotation Yrotation Zrotation
												JOINT LeftHandMiddle3
												{
													OFFSET 10.771950 0.000000 0.000000
													CHANNELS 3 Xrotation Yrotation Zrotation
													End Site
													{
														OFFSET 0.000000 0.000000 0.000000
													}
												}
											}
										}
										JOINT LeftHandRing1
										{
											OFFSET 24.660927 0.144547 -6.225808
											CHANNELS 3 Xrotation Yrotation Zrotation
											JOINT LeftHandRing2
											{
												OFFSET 9.393799 0.000000 0.000000
												CHANNELS 3 Xrotation Yrotation Zrotation
												JOINT LeftHandRing3
												{
													OFFSET 9.928497 0.000000 0.000000
													CHANNELS 3 Xrotation Yrotation Zrotation
													End Site
													{
														OFFSET 0.000000 0.000000 0.000000
													}
												}
											}
										}
										JOINT LeftHandPinky1
										{
											OFFSET 23.655350 0.125290 -12.815412
											CHANNELS 3 Xrotation Yrotation Zrotation
											JOINT LeftHandPinky2
											{
												OFFSET 8.425102 0.000000 0.000000
												CHANNELS 3 Xrotation Yrotation Zrotation
												JOINT LeftHandPinky3
												{
													OFFSET 8.147003 0.000000 0.000000
													CHANNELS 3 Xrotation Yrotation Zrotation
													End Site
													{
														OFFSET 0.000000 0.000000 0.000000
													}
												}
											}
										}
									}
								}
							}
						}
					}
					JOINT RightShoulder
					{
						OFFSET -3.249400 8.794197 -1.372250
						CHANNELS 3 Xrotation Yrotation Zrotation
						JOINT RightShoulder_split
						{
							OFFSET -3.249400 8.794197 -1.372250
							CHANNELS 3 Xrotation Yrotation Zrotation
							JOINT RightArm
							{
								OFFSET -11.953299 -2.279007 -0.146200
								CHANNELS 3 Xrotation Yrotation Zrotation
								JOINT RightForeArm
								{
									OFFSET -18.448900 0.000000 0.000000
									CHANNELS 3 Xrotation Yrotation Zrotation
									JOINT RightHand
									{
										OFFSET -29.527802 0.000000 0.000000
										CHANNELS 3 Xrotation Yrotation Zrotation
										JOINT RightHandThumb1
										{
											OFFSET -10.739754 -2.369614 9.225399
											CHANNELS 3 Xrotation Yrotation Zrotation
											JOINT RightHandThumb2
											{
												OFFSET -4.926170 -2.844131 2.844125
												CHANNELS 3 Xrotation Yrotation Zrotation
												JOINT RightHandThumb3
												{
													OFFSET -4.614891 -2.664413 2.664409
													CHANNELS 3 Xrotation Yrotation Zrotation
													JOINT RightHandThumb4
													{
														OFFSET -4.432465 -2.559082 2.559083
														CHANNELS 3 Xrotation Yrotation Zrotation
														End Site
														{
															OFFSET 0.000000 0.000000 0.000000
														}
													}
												}
											}
										}
										JOINT RightHandIndex1
										{
											OFFSET -26.467674 0.187653 6.405298
											CHANNELS 3 Xrotation Yrotation Zrotation
											JOINT RightHandIndex2
											{
												OFFSET -8.792900 0.000000 0.000000
												CHANNELS 3 Xrotation Yrotation Zrotation
												JOINT RightHandIndex3
												{
													OFFSET -10.075203 0.000000 0.000000
													CHANNELS 3 Xrotation Yrotation Zrotation
													End Site
													{
														OFFSET 0.000000 0.000000 0.000000
													}
												}
											}
										}
										JOINT RightHandMiddle1
										{
											OFFSET -25.764404 0.000000 0.000000
											CHANNELS 3 Xrotation Yrotation Zrotation
											JOINT RightHandMiddle2
											{
												OFFSET -9.393974 0.000000 0.000000
												CHANNELS 3 Xrotation Yrotation Zrotation
												JOINT RightHandMiddle3
												{
													OFFSET -10.771950 0.000000 0.000000
													CHANNELS 3 Xrotation Yrotation Zrotation
													End Site
													{
														OFFSET 0.000000 0.000000 0.000000
													}
												}
											}
										}
										JOINT RightHandRing1
										{
											OFFSET -24.660927 0.144547 -6.225808
											CHANNELS 3 Xrotation Yrotation Zrotation
											JOINT RightHandRing2
											{
												OFFSET -9.393799 0.000000 0.000000
												CHANNELS 3 Xrotation Yrotation Zrotation
												JOINT RightHandRing3
												{
													OFFSET -9.928497 0.000000 0.000000
													CHANNELS 3 Xrotation Yrotation Zrotation
													End Site
													{
														OFFSET 0.000000 0.000000 0.000000
													}
												}
											}
										}
										JOINT RightHandPinky1
										{
											OFFSET -23.655350 0.125290 -12.815412
											CHANNELS 3 Xrotation Yrotation Zrotation
											JOINT RightHandPinky2
											{
												OFFSET -8.425102 0.000000 0.000000
												CHANNELS 3 Xrotation Yrotation Zrotation
												JOINT RightHandPinky3
												{
													OFFSET -8.147003 0.000000 0.000000
													CHANNELS 3 Xrotation Yrotation Zrotation
													End Site
													{
														OFFSET 0.000000 0.000000 0.000000
													}
												}
											}
										}
									}
								}
							}
						}
					}
				}
			}
		}
	}
	JOINT LeftUpLeg
	{
		OFFSET 11.394100 -6.187798 -0.413800
		CHANNELS 3 Xrotation Yrotation Zrotation
		JOINT LeftLeg
		{
			OFFSET 0.430247 -32.302673 3.732800
			CHANNELS 3 Xrotation Yrotation Zrotation
			JOINT LeftFoot
			{
				OFFSET -0.430247 -48.264931 -6.423300
				CHANNELS 3 Xrotation Yrotation Zrotation
				JOINT LeftToeBase
				{
					OFFSET 4.230900 -16.068199 23.438400
					CHANNELS 3 Xrotation Yrotation Zrotation
					JOINT LeftToe_End
					{
						OFFSET 4.510700 0.695400 19.974600
						CHANNELS 3 Xrotation Yrotation Zrotation
						End Site
						{
							OFFSET 0.000000 0.000000 0.000000
						}
					}
				}
			}
		}
	}
	JOINT RightUpLeg
	{
		OFFSET -11.333700 -6.187798 -0.413800
		CHANNELS 3 Xrotation Yrotation Zrotation
		JOINT RightLeg
		{
			OFFSET -0.430392 -32.302628 3.733000
			CHANNELS 3 Xrotation Yrotation Zrotation
			JOINT RightFoot
			{
				OFFSET 0.430392 -48.264973 -6.423500
				CHANNELS 3 Xrotation Yrotation Zrotation
				JOINT RightToeBase
				{
					OFFSET -4.230900 -16.068199 23.438400
					CHANNELS 3 Xrotation Yrotation Zrotation
					JOINT RightToe_End
					{
						OFFSET -4.510700 0.695400 19.974600
						CHANNELS 3 Xrotation Yrotation Zrotation
						End Site
						{
							OFFSET 0.000000 0.000000 0.000000
						}
					}
				}
			}
		}
	}
}
MOTION
Frames: 4
Frame Time: 0.016667
-3.042087 93.041504 -12.271484 15.830230 -4.216121 -0.958508 0.354334 0.899860 -0.910301 0.636430 1.821084 -2.318891 0.000000 0.000000 0.000000 0.638262 1.823742 -2.316334 -1.472507 0.099772 3.009346 -0.377467 5.512135 -4.336850 0.000000 -0.000001 0.000000 0.360191 2.455131 -3.076565 0.000000 0.000000 0.000000 -42.779698 -18.686474 -73.901178 -0.000018 -32.101507 -0.000048 32.955635 -38.789191 21.774209 -1.540050 3.690168 6.142348 3.939058 7.948702 0.746814 -0.579465 1.574996 2.538710 -0.000004 0.000000 -0.000000 -0.000008 -0.000002 -0.000004 0.000004 0.000004 -0.000001 0.000003 0.000001 0.000000 -0.000011 -0.001939 0.015968 0.000004 0.001944 -0.015971 -0.000002 0.000000 0.000001 -0.000005 -0.000002 -0.000004 0.000000 -0.000007 -0.000006 -0.000005 -0.000000 0.000001 -0.018103 4.054236 0.511056 -0.018085 -4.054236 -0.511062 0.000001 0.000000 0.000001 -0.359829 -8.426895 9.978025 0.000000 0.000000 0.000000 -7.597803 0.652487 60.625463 0.000040 73.807803 -0.000074 34.281153 -23.697056 38.665144 -1.849259 -3.581792 -6.586140 4.637205 -8.634133 -0.225406 -1.273764 0.137300 -2.094870 0.000003 0.000000 -0.000001 -0.000005 0.000002 0.000006 -0.000001 -0.000001 -0.000001 0.000001 0.000000 -0.000001 -0.000004 0.000001 0.000011 0.000001 -0.000005 -0.000001 -0.000002 -0.000000 0.000001 -0.000004 0.000003 0.000006 -0.000001 -0.000000 0.000001 -0.000001 0.000000 0.000003 -0.000007 0.000002 0.000005 -0.000003 0.000001 0.000027 -0.000002 -0.000000 0.000001 -42.602048 10.027590 -1.346469 46.117823 10.084388 -9.665365 -23.749509 29.491698 12.672687 -4.524644 -0.000009 0.000071 -0.000000 -0.000002 0.000000 1.659259 -6.936771 6.761155 17.176032 -10.640346 0.827975 -28.111643 -16.332951 0.095851 -11.056436 0.000001 0.000004 -0.000000 -0.000001 -0.000000 
-3.012198 92.414795 -12.736124 15.946757 -7.034515 -0.925979 0.461390 1.134547 -0.823267 0.887023 2.339013 -2.487203 0.000000 0.000000 0.000000 0.888435 2.341321 -2.484547 -1.837071 0.243476 3.123045 -2.094612 6.419596 -4.540641 0.000001 0.000000 -0.000000 0.374454 2.421726 -3.265749 0.000000 0.000000 0.000000 -39.851213 -14.727739 -72.049685 0.000005 -22.743461 0.000008 32.115228 -41.481375 24.235912 -1.540053 3.690181 6.142351 3.939057 7.948702 0.746814 -0.579459 1.574995 2.538709 0.000000 0.000000 0.000001 -0.000005 -0.000001 -0.000001 0.000007 0.000002 -0.000003 0.000000 0.000000 0.000000 -0.000003 -0.001934 0.015983 0.000008 0.001946 -0.015972 0.000001 0.000000 -0.000000 -0.000005 -0.000001 -0.000001 0.000000 -0.000007 -0.000006 -0.000003 -0.000000 0.000000 -0.018098 4.054253 0.511073 -0.018091 -4.054236 -0.511062 0.000002 -0.000000 -0.000000 -0.352595 -8.501478 9.730646 0.000000 0.000000 0.000000 -12.738343 4.865301 63.264081 -0.000037 74.618369 0.000040 16.032894 -23.458652 18.092917 -1.849249 -3.581790 -6.586145 4.637201 -8.634136 -0.225405 -1.273765 0.137299 -2.094869 0.000001 0.000001 -0.000001 0.000002 0.000001 -0.000005 0.000001 -0.000001 0.000000 0.000001 0.000001 -0.000001 0.000006 -0.000003 -0.000004 -0.000001 -0.000003 0.000001 0.000002 -0.000001 -0.000001 0.000002 -0.000000 -0.000004 0.000001 -0.000001 0.000000 -0.000001 -0.000001 0.000000 0.000005 -0.000000 -0.000003 -0.000004 0.000002 0.000024 -0.000002 -0.000002 -0.000000 -42.974686 10.859459 0.008276 46.875298 10.644564 -9.559714 -25.717602 28.913642 12.842060 -3.874684 0.000003 0.000002 -0.000000 0.000002 0.000000 1.774644 -6.339837 6.835284 16.461717 -10.412711 -0.338472 -29.022785 -13.901309 1.598711 -8.445808 0.000004 0.000001 -0.000000 0.000000 -0.000000 
-2.839832 92.346611 -12.974094 16.139679 -9.713417 -1.088694 0.548119 1.343193 -0.791782 1.073556 2.781570 -2.534680 0.000000 0.000000 0.000000 1.074970 2.783871 -2.531567 -2.112482 0.371918 3.318561 -3.583593 7.337828 -4.619422 0.000001 0.000000 0.000000 0.401736 2.230152 -3.311586 0.000000 0.000000 0.000000 -35.619170 -10.457012 -70.485653 0.000005 -15.000187 -0.000021 29.764776 -42.497454 25.442122 -1.546137 3.447756 6.213054 3.939059 7.948703 0.746814 -0.579458 1.574994 2.538710 -0.000000 -0.000001 0.000000 0.000011 -0.012630 0.104573 0.000008 0.000001 -0.000003 0.000002 -0.000000 -0.000000 0.000021 -0.014540 0.120551 0.000001 0.001946 -0.015972 0.000002 0.000001 0.000000 0.000011 -0.012630 0.104573 0.000002 -0.000006 -0.000006 0.000002 0.000001 -0.000000 -0.025486 4.041595 0.615892 -0.018085 -4.054234 -0.511062 -0.000001 -0.000000 0.000001 -0.356440 -8.608837 9.558904 0.000000 0.000000 0.000000 -16.313084 8.187870 64.953549 -0.000077 75.469028 0.000102 5.685426 -18.653453 6.996141 -1.849259 -3.581789 -6.586125 4.637204 -8.634131 -0.225407 -1.273762 0.137301 -2.094872 -0.000001 0.000001 0.000001 -0.000003 -0.000003 0.000001 0.000001 0.000002 -0.000001 0.000001 0.000002 -0.000002 0.000006 -0.000007 -0.000008 -0.000002 -0.000008 -0.000002 -0.000003 0.000000 0.000000 -0.000004 -0.000001 0.000001 0.000001 0.000001 -0.000000 0.000000 -0.000001 0.000002 -0.000003 -0.000002 0.000001 -0.000001 0.000008 0.000021 0.000000 -0.000001 0.000002 -43.103729 11.496276 1.315140 46.875612 10.957851 -9.499087 -26.531276 28.603406 12.897999 -4.435256 -0.000005 0.000001 0.000000 0.000000 -0.000000 0.958807 -5.904631 6.427565 16.838097 -10.354206 -1.147743 -28.198999 -11.172163 4.457091 -9.040541 0.000003 -0.000003 -0.000000 -0.000004 -0.000000 
-2.554942 92.882797 -12.983072 16.343272 -12.001090 -1.310421 0.625338 1.495129 -0.947995 1.197267 3.115613 -2.517050 0.000000 0.000000 0.000000 1.200317 3.118347 -2.512250 -2.270877 0.460011 3.641769 -4.724759 8.186669 -4.521798 0.000001 0.000000 -0.000001 0.438873 1.963089 -3.304546 0.000000 0.000000 0.000000 -30.625090 -5.983804 -69.424502 -0.000004 -8.498762 -0.000032 26.865929 -42.479303 25.958836 -1.548683 3.336559 6.245484 3.939058 7.948704 0.746812 -0.579460 1.574994 2.538711 0.000002 -0.000001 -0.000001 0.000019 -0.018396 0.152536 0.000003 0.000002 -0.000003 -0.000002 0.000001 0.000000 0.000029 -0.020334 0.168513 0.000004 0.001944 -0.015973 -0.000002 0.000000 0.000000 0.000020 -0.018396 0.152536 -0.000000 -0.000009 -0.000007 0.000001 0.000000 -0.000001 -0.028885 4.035794 0.663967 -0.018086 -4.054233 -0.511063 0.000000 -0.000000 -0.000000 -0.371558 -8.742234 9.454225 0.000000 0.000000 0.000000 -18.557115 10.858340 65.882762 0.000050 76.259704 -0.000038 0.738467 -13.475851 2.340475 -1.849252 -3.581795 -6.586138 4.637202 -8.634134 -0.225406 -1.273762 0.137299 -2.094874 0.000002 -0.000000 -0.000002 -0.000001 -0.000002 0.000003 0.000002 -0.000000 -0.000002 -0.000001 0.000002 -0.000001 0.000007 -0.000005 -0.000000 -0.000001 -0.000010 -0.000001 0.000000 -0.000002 -0.000000 -0.000000 -0.000003 0.000002 0.000000 0.000001 -0.000000 -0.000001 -0.000001 0.000001 -0.000001 -0.000002 0.000001 -0.000001 0.000002 0.000024 0.000002 0.000000 -0.000001 -42.797846 11.736901 2.260768 45.989327 11.070092 -9.472218 -26.033589 28.499810 12.787093 -4.882679 -0.000014 0.000003 0.000000 0.000002 0.000000 -0.420634 -5.677671 5.599112 17.752621 -10.426869 -1.566120 -25.774684 -8.223184 7.906495 -12.232359 0.000001 -0.000002 -0.000000 -0.000001 -0.000000 
